<mxfile host="65bd71144e">
    <diagram id="zCMvA5MSbPXoDaCWG3Nb" name="Page-1">
        <mxGraphModel dx="1735" dy="701" grid="1" gridSize="10" guides="1" tooltips="1" connect="1" arrows="1" fold="1" page="1" pageScale="1" pageWidth="850" pageHeight="1100" math="0" shadow="0">
            <root>
                <mxCell id="0"/>
                <mxCell id="1" parent="0"/>
                <mxCell id="4" value="" style="edgeStyle=none;html=1;" parent="1" source="2" target="3" edge="1">
                    <mxGeometry relative="1" as="geometry"/>
                </mxCell>
                <mxCell id="2" value="Enter Chron Component" style="whiteSpace=wrap;html=1;" parent="1" vertex="1">
                    <mxGeometry x="240" width="120" height="60" as="geometry"/>
                </mxCell>
                <mxCell id="6" value="No" style="edgeStyle=none;html=1;entryX=0;entryY=0.5;entryDx=0;entryDy=0;entryPerimeter=0;" parent="1" source="3" target="37" edge="1">
                    <mxGeometry relative="1" as="geometry">
                        <mxPoint x="550" y="185" as="targetPoint"/>
                    </mxGeometry>
                </mxCell>
                <mxCell id="8" value="Yes" style="edgeStyle=none;html=1;" parent="1" source="3" target="7" edge="1">
                    <mxGeometry relative="1" as="geometry"/>
                </mxCell>
                <mxCell id="3" value="Is it today?&lt;br&gt;(We need to be careful how&lt;br&gt;we define today, since someone&lt;br&gt;could be waking up at 11:30pm at night and we don't want to stop&lt;br&gt;considering &quot;today&quot;&lt;br&gt;after 12am" style="rhombus;whiteSpace=wrap;html=1;" parent="1" vertex="1">
                    <mxGeometry x="195" y="80" width="210" height="210" as="geometry"/>
                </mxCell>
                <mxCell id="12" value="Yes" style="edgeStyle=none;html=1;entryX=0.5;entryY=0;entryDx=0;entryDy=0;" parent="1" source="7" target="11" edge="1">
                    <mxGeometry relative="1" as="geometry">
                        <mxPoint x="300" y="500" as="targetPoint"/>
                    </mxGeometry>
                </mxCell>
                <mxCell id="30" value="No" style="edgeStyle=none;html=1;" parent="1" source="7" target="29" edge="1">
                    <mxGeometry relative="1" as="geometry"/>
                </mxCell>
                <mxCell id="7" value="Hypnostats&lt;br&gt;exist for&lt;br&gt;every device today? (including&lt;br&gt;TRUED)" style="rhombus;whiteSpace=wrap;html=1;" parent="1" vertex="1">
                    <mxGeometry x="235" y="325" width="130" height="120" as="geometry"/>
                </mxCell>
                <mxCell id="11" value="Display accordingly&lt;br&gt;(Mostly need for average and PR stuff, but might as well do for all the device stats)" style="whiteSpace=wrap;html=1;" parent="1" vertex="1">
                    <mxGeometry x="240" y="505" width="120" height="90" as="geometry"/>
                </mxCell>
                <mxCell id="16" value="Yes" style="edgeStyle=none;html=1;" parent="1" source="13" target="15" edge="1">
                    <mxGeometry relative="1" as="geometry">
                        <Array as="points">
                            <mxPoint x="-172" y="385"/>
                        </Array>
                    </mxGeometry>
                </mxCell>
                <mxCell id="18" value="No" style="edgeStyle=none;html=1;entryX=0.5;entryY=0;entryDx=0;entryDy=0;" parent="1" source="13" target="19" edge="1">
                    <mxGeometry relative="1" as="geometry">
                        <mxPoint x="-180" y="385" as="targetPoint"/>
                    </mxGeometry>
                </mxCell>
                <mxCell id="13" value="Some&lt;br&gt;already posted for today?" style="rhombus;whiteSpace=wrap;html=1;" parent="1" vertex="1">
                    <mxGeometry x="-120" y="332.5" width="90" height="105" as="geometry"/>
                </mxCell>
                <mxCell id="21" value="" style="edgeStyle=none;html=1;entryX=0;entryY=0.5;entryDx=0;entryDy=0;exitX=1;exitY=0.5;exitDx=0;exitDy=0;" parent="1" source="15" target="35" edge="1">
                    <mxGeometry relative="1" as="geometry">
                        <mxPoint x="220" y="680" as="targetPoint"/>
                        <Array as="points">
                            <mxPoint x="-50" y="740"/>
                            <mxPoint x="-50" y="680"/>
                            <mxPoint x="40" y="680"/>
                            <mxPoint x="40" y="550"/>
                        </Array>
                    </mxGeometry>
                </mxCell>
                <mxCell id="15" value="Do Put and Post calls accordingly, don't forget TRUED has changed" style="whiteSpace=wrap;html=1;" parent="1" vertex="1">
                    <mxGeometry x="-230" y="710" width="115" height="60" as="geometry"/>
                </mxCell>
                <mxCell id="23" value="" style="edgeStyle=none;html=1;entryX=0;entryY=0.5;entryDx=0;entryDy=0;" parent="1" source="19" target="35" edge="1">
                    <mxGeometry relative="1" as="geometry">
                        <mxPoint x="220" y="680" as="targetPoint"/>
                        <Array as="points">
                            <mxPoint x="-75" y="680"/>
                            <mxPoint x="40" y="680"/>
                            <mxPoint x="40" y="550"/>
                        </Array>
                    </mxGeometry>
                </mxCell>
                <mxCell id="19" value="Do all of the post calls" style="whiteSpace=wrap;html=1;" parent="1" vertex="1">
                    <mxGeometry x="-135" y="510" width="120" height="60" as="geometry"/>
                </mxCell>
                <mxCell id="63" value="" style="edgeStyle=none;html=1;" parent="1" source="29" target="13" edge="1">
                    <mxGeometry relative="1" as="geometry"/>
                </mxCell>
                <mxCell id="29" value="Get call for HypnoStats Today" style="whiteSpace=wrap;html=1;" parent="1" vertex="1">
                    <mxGeometry x="40" y="355" width="90" height="60" as="geometry"/>
                </mxCell>
                <mxCell id="36" value="" style="edgeStyle=none;html=1;" parent="1" source="35" target="11" edge="1">
                    <mxGeometry relative="1" as="geometry"/>
                </mxCell>
                <mxCell id="35" value="Get Call HypnoStats" style="whiteSpace=wrap;html=1;" parent="1" vertex="1">
                    <mxGeometry x="80" y="520" width="120" height="60" as="geometry"/>
                </mxCell>
                <mxCell id="37" value="Eventually just show all stored data we have on our own server so we dont have to always call on Fitbit, Withings, etc... apis. But for now we just need the TRUED averages, PRs, and Score for the day. We Should also store a hypnogram at some point to display" style="whiteSpace=wrap;html=1;" parent="1" vertex="1">
                    <mxGeometry x="610" y="120" width="220" height="130" as="geometry"/>
                </mxCell>
                <mxCell id="40" value="" style="edgeStyle=none;html=1;" parent="1" source="38" target="39" edge="1">
                    <mxGeometry relative="1" as="geometry"/>
                </mxCell>
                <mxCell id="38" value="Press Badge to make edits" style="whiteSpace=wrap;html=1;fillColor=#60a917;strokeColor=#2D7600;fontColor=#ffffff;" parent="1" vertex="1">
                    <mxGeometry x="660" y="340" width="120" height="60" as="geometry"/>
                </mxCell>
                <mxCell id="42" value="" style="edgeStyle=none;html=1;" parent="1" source="39" target="41" edge="1">
                    <mxGeometry relative="1" as="geometry"/>
                </mxCell>
                <mxCell id="39" value="Allow check marks and etc to be editable" style="whiteSpace=wrap;html=1;" parent="1" vertex="1">
                    <mxGeometry x="660" y="480" width="120" height="60" as="geometry"/>
                </mxCell>
                <mxCell id="46" value="" style="edgeStyle=none;html=1;" parent="1" source="41" target="45" edge="1">
                    <mxGeometry relative="1" as="geometry"/>
                </mxCell>
                <mxCell id="41" value="Press Badge to save changes" style="whiteSpace=wrap;html=1;fillColor=#60a917;strokeColor=#2D7600;fontColor=#ffffff;" parent="1" vertex="1">
                    <mxGeometry x="1430" y="480" width="120" height="60" as="geometry"/>
                </mxCell>
                <mxCell id="50" value="No" style="edgeStyle=none;html=1;" parent="1" source="45" target="49" edge="1">
                    <mxGeometry relative="1" as="geometry"/>
                </mxCell>
                <mxCell id="52" value="Yes" style="edgeStyle=none;html=1;entryX=0.5;entryY=1;entryDx=0;entryDy=0;" parent="1" source="45" target="15" edge="1">
                    <mxGeometry x="-0.9461" relative="1" as="geometry">
                        <mxPoint x="520" y="810" as="targetPoint"/>
                        <Array as="points">
                            <mxPoint x="520" y="800"/>
                            <mxPoint x="-172" y="800"/>
                        </Array>
                        <mxPoint as="offset"/>
                    </mxGeometry>
                </mxCell>
                <mxCell id="45" value="Was something edited?" style="rhombus;whiteSpace=wrap;html=1;" parent="1" vertex="1">
                    <mxGeometry x="480" y="640" width="80" height="80" as="geometry"/>
                </mxCell>
                <mxCell id="49" value="Do nothing" style="whiteSpace=wrap;html=1;" parent="1" vertex="1">
                    <mxGeometry x="620" y="650" width="120" height="60" as="geometry"/>
                </mxCell>
                <mxCell id="57" value="" style="edgeStyle=none;html=1;" parent="1" source="54" target="56" edge="1">
                    <mxGeometry relative="1" as="geometry"/>
                </mxCell>
                <mxCell id="54" value="Run through stat averages" style="whiteSpace=wrap;html=1;" parent="1" vertex="1">
                    <mxGeometry x="-480" y="240" width="120" height="60" as="geometry"/>
                </mxCell>
                <mxCell id="59" value="" style="edgeStyle=none;html=1;" parent="1" source="56" target="58" edge="1">
                    <mxGeometry relative="1" as="geometry"/>
                </mxCell>
                <mxCell id="56" value="Error Correction (remove bad devices)" style="whiteSpace=wrap;html=1;" parent="1" vertex="1">
                    <mxGeometry x="-480" y="350" width="120" height="60" as="geometry"/>
                </mxCell>
                <mxCell id="61" value="" style="edgeStyle=none;html=1;" parent="1" source="58" target="60" edge="1">
                    <mxGeometry relative="1" as="geometry"/>
                </mxCell>
                <mxCell id="58" value="Use last known HypnoStat for Each Device to Bias to Create TRUED" style="whiteSpace=wrap;html=1;" parent="1" vertex="1">
                    <mxGeometry x="-480" y="477.5" width="120" height="60" as="geometry"/>
                </mxCell>
                <mxCell id="74" value="" style="edgeStyle=none;html=1;" parent="1" source="60" edge="1">
                    <mxGeometry relative="1" as="geometry">
                        <mxPoint x="-250" y="300" as="targetPoint"/>
                        <Array as="points">
                            <mxPoint x="-250" y="620"/>
                        </Array>
                    </mxGeometry>
                </mxCell>
                <mxCell id="60" value="Calculate Percent Errors for Todays" style="whiteSpace=wrap;html=1;" parent="1" vertex="1">
                    <mxGeometry x="-480" y="590" width="125" height="60" as="geometry"/>
                </mxCell>
                <mxCell id="67" value="" style="edgeStyle=none;html=1;" parent="1" source="64" target="66" edge="1">
                    <mxGeometry relative="1" as="geometry"/>
                </mxCell>
                <mxCell id="64" value="Enter Hypnograph&lt;br&gt;Component" style="whiteSpace=wrap;html=1;" parent="1" vertex="1">
                    <mxGeometry x="-480" y="20" width="120" height="60" as="geometry"/>
                </mxCell>
                <mxCell id="68" value="yes" style="edgeStyle=none;html=1;" parent="1" source="66" target="54" edge="1">
                    <mxGeometry relative="1" as="geometry"/>
                </mxCell>
                <mxCell id="70" value="No" style="edgeStyle=none;html=1;" parent="1" source="66" target="69" edge="1">
                    <mxGeometry relative="1" as="geometry"/>
                </mxCell>
                <mxCell id="66" value="Is it Today?" style="rhombus;whiteSpace=wrap;html=1;" parent="1" vertex="1">
                    <mxGeometry x="-460" y="120" width="80" height="80" as="geometry"/>
                </mxCell>
                <mxCell id="72" value="" style="edgeStyle=none;html=1;" parent="1" source="69" target="71" edge="1">
                    <mxGeometry relative="1" as="geometry"/>
                </mxCell>
                <mxCell id="69" value="Get hypnostats historical" style="whiteSpace=wrap;html=1;" parent="1" vertex="1">
                    <mxGeometry x="-310" y="130" width="120" height="60" as="geometry"/>
                </mxCell>
                <mxCell id="76" value="" style="edgeStyle=none;html=1;entryX=0;entryY=0.5;entryDx=0;entryDy=0;" parent="1" source="71" target="2" edge="1">
                    <mxGeometry relative="1" as="geometry">
                        <mxPoint x="-110" y="270" as="targetPoint"/>
                        <Array as="points">
                            <mxPoint x="-100" y="270"/>
                            <mxPoint x="-100" y="30"/>
                        </Array>
                    </mxGeometry>
                </mxCell>
                <mxCell id="71" value="Create Stats Hypnograms as necessary" style="whiteSpace=wrap;html=1;" parent="1" vertex="1">
                    <mxGeometry x="-310" y="240" width="120" height="60" as="geometry"/>
                </mxCell>
            </root>
        </mxGraphModel>
    </diagram>
</mxfile>